# xmcd
# 
# Track frame offsets:
#     150
#     14517
#     28504
#     44480
#     60146
#     75562
#     89653
#     104750
#     118260
#     132589
#     146313
#     164993
#     179852
#     194884
#     209425
#     224487
#     239603
#     253593
#     266505
#     280723
# 
# Disc length: 3927
# 
# Revision: 4
# Processed by: cddbd v1.5.2PL0 Copyright (c) Steve Scherf et al.
# Submitted via: fre:ac v1.0.31
# 
DISCID=450f5514
DTITLE=Various Artist - Bääärenstark!!! Sommer 2016 - CD3
DYEAR=2016
DGENRE=Schlager
TTITLE0=Seer - Monches Mal vergess ma wia guats uns geht
TTITLE1=Die Cubaboarischen - El Loco
TTITLE2=Olaf Henning - Mein großer Hit (Wellenreiter Remix)
TTITLE3=Schramme 11 - Das Glück schenkt einen aus
TTITLE4=Volxrock - Engel tragen doch keine Strapse
TTITLE5=Edelmeer - Es ist mein Traum, dein Traum zu sein
TTITLE6=Tanja Lasch - Die immer lacht
TTITLE7=Caroline Beil and Oliver Lukas - Vielleicht mal nach Berlin
TTITLE8=Jens Bogner - Du lässt mich noch Mann sein
TTITLE9=Susan Ebrahimi - Du bist Freiheit
TTITLE10=Peter Sebastian - Ich bin schockverliebt (DJ Ostkurve Mix)
TTITLE11=Laura Wilde - Heute hat es Klick gemacht
TTITLE12=Diana and Marco - Zauberformel
TTITLE13=Klaus Wendel - Niemand liebt Dich so wie ich
TTITLE14=Jan and Jascha - Heimat (Ich komm zurück)
TTITLE15=Tina York - Der Sommer ist da, wo Du bist
TTITLE16=Diana Sorbello - Dolce Vita - Süßes Leben
TTITLE17=Franky Leitner - Singeling
TTITLE18=Mario and Christoph - Keine tanzt wie Du (tanz, Baby)
TTITLE19=Sarah Jane Scott - Hallo hallo
EXTD=
EXTT0=
EXTT1=
EXTT2=
EXTT3=
EXTT4=
EXTT5=
EXTT6=
EXTT7=
EXTT8=
EXTT9=
EXTT10=
EXTT11=
EXTT12=
EXTT13=
EXTT14=
EXTT15=
EXTT16=
EXTT17=
EXTT18=
EXTT19=
PLAYORDER=
